# Blender v2.79 (sub 0) OBJ File: 'croco.blend'
# www.blender.org
mtllib button.mtl
o button_Plane
v 1.630145 1.945439 4.365740
v 1.630145 1.945439 4.611963
v 1.706843 1.711466 4.365740
v 1.630145 1.945439 4.119517
v 1.553448 2.179412 4.365740
v 1.687669 1.769959 4.550407
v 1.687668 1.769959 4.181073
v 1.572622 2.120919 4.550407
v 1.572622 2.120919 4.181073
v 1.748840 1.984348 4.365740
v 1.750268 1.725701 4.365740
v 1.673570 1.959674 4.119517
v 1.596872 2.193647 4.365740
v 1.673570 1.959674 4.611963
v 1.616047 2.135154 4.550407
v 1.731093 1.784194 4.550407
v 1.731093 1.784194 4.181073
v 1.616047 2.135154 4.181073
v 1.724820 1.803333 4.365740
v 1.673570 1.959674 4.201213
v 1.622321 2.116015 4.365740
v 1.673570 1.959674 4.530266
v 1.635133 2.076930 4.489135
v 1.712007 1.842418 4.489135
v 1.712007 1.842418 4.242345
v 1.635133 2.076930 4.242345
v 1.800089 1.828007 4.365740
v 1.748840 1.984348 4.201213
v 1.697590 2.140689 4.365740
v 1.748840 1.984348 4.530266
v 1.710403 2.101604 4.489135
v 1.787277 1.867092 4.489135
v 1.787277 1.867092 4.242345
v 1.710403 2.101604 4.242345
vn -0.9502 -0.3115 0.0000
vn 0.9502 0.3115 0.0000
vn -0.2955 0.9015 -0.3162
vn 0.0985 -0.3005 -0.9487
vn 0.2955 -0.9015 0.3162
vn -0.0985 0.3005 0.9487
vn -0.2955 0.9015 0.3162
vn -0.0985 0.3005 -0.9487
vn 0.2955 -0.9015 -0.3162
vn 0.0985 -0.3005 0.9487
usemtl Material.001
s off
f 1//1 3//1 6//1 2//1
f 1//1 4//1 7//1 3//1
f 1//1 5//1 9//1 4//1
f 1//1 2//1 8//1 5//1
f 14//2 16//2 24//2 22//2
f 11//2 17//2 25//2 19//2
f 12//2 18//2 26//2 20//2
f 13//2 15//2 23//2 21//2
f 9//3 5//3 13//3 18//3
f 7//4 4//4 12//4 17//4
f 6//5 3//5 11//5 16//5
f 8//6 2//6 14//6 15//6
f 5//7 8//7 15//7 13//7
f 4//8 9//8 18//8 12//8
f 3//9 7//9 17//9 11//9
f 2//10 6//10 16//10 14//10
f 18//2 13//2 21//2 26//2
f 17//2 12//2 20//2 25//2
f 16//2 11//2 19//2 24//2
f 15//2 14//2 22//2 23//2
usemtl Material.004
f 22//10 24//10 32//10 30//10
f 19//9 25//9 33//9 27//9
f 20//8 26//8 34//8 28//8
f 21//7 23//7 31//7 29//7
f 10//2 30//2 32//2 27//2
f 10//2 27//2 33//2 28//2
f 10//2 28//2 34//2 29//2
f 10//2 29//2 31//2 30//2
f 26//3 21//3 29//3 34//3
f 25//4 20//4 28//4 33//4
f 24//5 19//5 27//5 32//5
f 23//6 22//6 30//6 31//6
