# Blender v2.79 (sub 0) OBJ File: 'croco.blend'
# www.blender.org
mtllib game_over.mtl
o game_over_CUText
v 0.375126 2.835575 -1.277958
v 0.375126 2.847968 -1.452278
v 0.375126 2.782976 -1.583362
v 0.375126 2.629586 -1.582261
v 0.375126 2.572580 -1.478165
v 0.375126 2.483079 -1.634860
v 0.375126 2.373475 -1.548664
v 0.375126 2.557985 -1.388664
v 0.375126 2.369069 -1.406564
v 0.375126 2.367968 -1.301366
v 0.375126 2.769758 -1.502949
v 0.375126 2.779672 -1.348457
v 0.375126 2.635369 -1.372967
v 0.375126 2.664560 -1.519748
v 0.375126 2.836677 -0.898474
v 0.375126 2.854852 -1.185979
v 0.375126 2.774164 -1.196168
v 0.375126 2.756264 -0.973379
v 0.375126 2.651066 -0.976684
v 0.375126 2.662357 -1.131176
v 0.375126 2.559362 -1.142467
v 0.375126 2.548071 -0.986874
v 0.375126 2.457469 -0.991280
v 0.375126 2.483079 -1.225083
v 0.375126 2.366866 -1.225083
v 0.375126 2.370171 -0.909490
v 0.375126 2.790963 -0.518990
v 0.375126 2.780773 -0.608491
v 0.375126 2.493269 -0.677889
v 0.375126 2.835575 -0.742880
v 0.375126 2.826763 -0.844774
v 0.375126 2.376780 -0.738474
v 0.375126 2.402667 -0.612071
v 0.375126 2.839155 -0.279403
v 0.375126 2.806660 -0.387906
v 0.375126 2.662357 -0.470798
v 0.375126 2.456367 -0.441607
v 0.375126 2.388071 -0.280505
v 0.375126 2.453062 -0.132897
v 0.375126 2.639775 -0.085806
v 0.375126 2.792064 -0.156305
v 0.375126 2.706969 -0.314102
v 0.375126 2.692374 -0.229834
v 0.375126 2.536780 -0.234515
v 0.375126 2.536780 -0.337510
v 0.375126 2.836677 0.449271
v 0.375126 2.854852 0.161767
v 0.375126 2.774164 0.151578
v 0.375126 2.756264 0.374366
v 0.375126 2.651066 0.371061
v 0.375126 2.662357 0.216569
v 0.375126 2.559362 0.205278
v 0.375126 2.548071 0.360872
v 0.375126 2.457469 0.356466
v 0.375126 2.483079 0.122662
v 0.375126 2.366866 0.122662
v 0.375126 2.370171 0.438256
v 0.375126 2.841358 0.841698
v 0.375126 2.828966 0.765691
v 0.375126 2.700360 0.704280
v 0.375126 2.830068 0.679495
v 0.375126 2.831169 0.577602
v 0.375126 2.365764 0.493884
v 0.375126 2.371272 0.606793
v 0.375126 2.492167 0.587791
v 0.375126 2.634267 0.658290
v 0.375126 2.562666 0.692989
v 0.375126 2.629861 0.765691
v 0.375126 2.366866 0.811681
v 0.375126 2.384766 0.936982
v 0.375126 2.841358 1.180149
v 0.375126 2.844663 1.073850
v 0.375126 2.415059 0.950752
v 0.375126 2.378983 1.023454
v 0.375126 2.578363 1.090648
v 0.375126 2.579465 1.159771
v 0.375126 2.389172 1.213747
v 0.375126 2.407073 1.318945
v 0.375126 2.777468 1.136363
v 0.375126 2.777468 1.133058
v 0.375126 2.637572 1.166655
v 0.375126 2.637572 1.091475
v 0.375126 2.833372 1.475640
v 0.375126 2.770584 1.358050
v 0.375126 2.698983 1.408446
v 0.375126 2.762598 1.551647
v 0.375126 2.645283 1.652439
v 0.375126 2.506487 1.564039
v 0.375126 2.540085 1.491337
v 0.375126 2.619672 1.499048
v 0.375126 2.595988 1.331337
v 0.375126 2.507589 1.341251
v 0.375126 2.540085 1.423041
v 0.375126 2.389172 1.394951
v 0.375126 2.377882 1.461045
v 0.375126 2.456092 1.490236
v 0.375126 2.408174 1.571750
v 0.375126 2.531272 1.718532
v 0.375126 2.715782 1.732852
v 0.375126 2.828966 1.659048
v 0.323834 2.835575 -1.277958
v 0.323834 2.847968 -1.452278
v 0.323834 2.782976 -1.583362
v 0.323834 2.629586 -1.582261
v 0.323834 2.572580 -1.478165
v 0.323834 2.483079 -1.634860
v 0.323834 2.373475 -1.548664
v 0.323834 2.557985 -1.388664
v 0.323834 2.369069 -1.406564
v 0.323834 2.367968 -1.301366
v 0.323834 2.769758 -1.502949
v 0.323834 2.779672 -1.348457
v 0.323834 2.635369 -1.372967
v 0.323834 2.664560 -1.519748
v 0.323834 2.836677 -0.898474
v 0.323834 2.854852 -1.185979
v 0.323834 2.774164 -1.196168
v 0.323834 2.756264 -0.973379
v 0.323834 2.651066 -0.976684
v 0.323834 2.662357 -1.131176
v 0.323834 2.559362 -1.142467
v 0.323834 2.548071 -0.986874
v 0.323834 2.457469 -0.991280
v 0.323834 2.483079 -1.225083
v 0.323834 2.366866 -1.225083
v 0.323834 2.370171 -0.909490
v 0.323834 2.790963 -0.518990
v 0.323834 2.780773 -0.608491
v 0.323834 2.493269 -0.677889
v 0.323834 2.835575 -0.742880
v 0.323834 2.826763 -0.844774
v 0.323834 2.376780 -0.738474
v 0.323834 2.402667 -0.612071
v 0.323834 2.839155 -0.279403
v 0.323834 2.806660 -0.387906
v 0.323834 2.662357 -0.470798
v 0.323834 2.456367 -0.441607
v 0.323834 2.388071 -0.280505
v 0.323834 2.453062 -0.132897
v 0.323834 2.639775 -0.085806
v 0.323834 2.792064 -0.156305
v 0.323834 2.706969 -0.314102
v 0.323834 2.692374 -0.229834
v 0.323834 2.536780 -0.234515
v 0.323834 2.536780 -0.337510
v 0.323834 2.836677 0.449271
v 0.323834 2.854852 0.161767
v 0.323834 2.774164 0.151578
v 0.323834 2.756264 0.374366
v 0.323834 2.651066 0.371061
v 0.323834 2.662357 0.216569
v 0.323834 2.559362 0.205278
v 0.323834 2.548071 0.360872
v 0.323834 2.457469 0.356466
v 0.323834 2.483079 0.122662
v 0.323834 2.366866 0.122662
v 0.323834 2.370171 0.438256
v 0.323834 2.841358 0.841698
v 0.323834 2.828966 0.765691
v 0.323834 2.700360 0.704280
v 0.323834 2.830068 0.679495
v 0.323834 2.831169 0.577602
v 0.323834 2.365764 0.493884
v 0.323834 2.371272 0.606793
v 0.323834 2.492167 0.587791
v 0.323834 2.634267 0.658290
v 0.323834 2.562666 0.692989
v 0.323834 2.629861 0.765691
v 0.323834 2.366866 0.811681
v 0.323834 2.384766 0.936982
v 0.323834 2.841358 1.180149
v 0.323834 2.844663 1.073850
v 0.323834 2.415059 0.950752
v 0.323834 2.378983 1.023454
v 0.323834 2.578363 1.090648
v 0.323834 2.579465 1.159771
v 0.323834 2.389172 1.213747
v 0.323834 2.407073 1.318945
v 0.323834 2.777468 1.136363
v 0.323834 2.777468 1.133058
v 0.323834 2.637572 1.166655
v 0.323834 2.637572 1.091475
v 0.323834 2.833372 1.475640
v 0.323834 2.770584 1.358050
v 0.323834 2.698983 1.408446
v 0.323834 2.762598 1.551647
v 0.323834 2.645283 1.652439
v 0.323834 2.506487 1.564039
v 0.323834 2.540085 1.491337
v 0.323834 2.619672 1.499048
v 0.323834 2.595988 1.331337
v 0.323834 2.507589 1.341251
v 0.323834 2.540085 1.423041
v 0.323834 2.389172 1.394951
v 0.323834 2.377882 1.461045
v 0.323834 2.456092 1.490236
v 0.323834 2.408174 1.571750
v 0.323834 2.531272 1.718532
v 0.323834 2.715782 1.732852
v 0.323834 2.828966 1.659048
v 0.323834 2.833372 1.475640
v 0.375126 2.833372 1.475640
v 0.323834 2.770584 1.358050
v 0.375126 2.770584 1.358050
v 0.323834 2.698983 1.408446
v 0.375126 2.698983 1.408446
v 0.323834 2.762598 1.551647
v 0.375126 2.762598 1.551647
v 0.323834 2.645283 1.652439
v 0.375126 2.645283 1.652439
v 0.323834 2.506487 1.564039
v 0.375126 2.506487 1.564039
v 0.323834 2.540085 1.491337
v 0.375126 2.540085 1.491337
v 0.323834 2.619672 1.499048
v 0.375126 2.619672 1.499048
v 0.323834 2.595988 1.331337
v 0.375126 2.595988 1.331337
v 0.323834 2.507589 1.341251
v 0.375126 2.507589 1.341251
v 0.323834 2.540085 1.423041
v 0.375126 2.540085 1.423041
v 0.323834 2.389172 1.394951
v 0.375126 2.389172 1.394951
v 0.323834 2.377882 1.461045
v 0.375126 2.377882 1.461045
v 0.323834 2.456092 1.490236
v 0.375126 2.456092 1.490236
v 0.323834 2.408174 1.571750
v 0.375126 2.408174 1.571750
v 0.323834 2.531272 1.718532
v 0.375126 2.531272 1.718532
v 0.323834 2.715782 1.732852
v 0.375126 2.715782 1.732852
v 0.323834 2.828966 1.659048
v 0.375126 2.828966 1.659048
v 0.323834 2.841358 1.180149
v 0.375126 2.841358 1.180149
v 0.323834 2.844663 1.073850
v 0.375126 2.844663 1.073850
v 0.323834 2.415059 0.950752
v 0.375126 2.415059 0.950752
v 0.323834 2.378983 1.023454
v 0.375126 2.378983 1.023454
v 0.323834 2.578363 1.090648
v 0.375126 2.578363 1.090648
v 0.323834 2.579465 1.159771
v 0.375126 2.579465 1.159771
v 0.323834 2.389172 1.213747
v 0.375126 2.389172 1.213747
v 0.323834 2.407073 1.318945
v 0.375126 2.407073 1.318945
v 0.323834 2.777468 1.136363
v 0.375126 2.777468 1.136363
v 0.323834 2.777468 1.133058
v 0.375126 2.777468 1.133058
v 0.323834 2.637572 1.166655
v 0.375126 2.637572 1.166655
v 0.323834 2.637572 1.091475
v 0.375126 2.637572 1.091475
v 0.323834 2.841358 0.841698
v 0.375126 2.841358 0.841698
v 0.323834 2.828966 0.765691
v 0.375126 2.828966 0.765691
v 0.323834 2.700360 0.704280
v 0.375126 2.700360 0.704280
v 0.323834 2.830068 0.679495
v 0.375126 2.830068 0.679495
v 0.323834 2.831169 0.577602
v 0.375126 2.831169 0.577602
v 0.323834 2.365764 0.493884
v 0.375126 2.365764 0.493884
v 0.323834 2.371272 0.606793
v 0.375126 2.371272 0.606793
v 0.323834 2.492167 0.587791
v 0.375126 2.492167 0.587791
v 0.323834 2.634267 0.658290
v 0.375126 2.634267 0.658290
v 0.323834 2.562666 0.692989
v 0.375126 2.562666 0.692989
v 0.323834 2.629861 0.765691
v 0.375126 2.629861 0.765691
v 0.323834 2.366866 0.811681
v 0.375126 2.366866 0.811681
v 0.323834 2.384766 0.936982
v 0.375126 2.384766 0.936982
v 0.323834 2.836677 0.449271
v 0.375126 2.836677 0.449271
v 0.323834 2.854852 0.161767
v 0.375126 2.854852 0.161767
v 0.323834 2.774164 0.151578
v 0.375126 2.774164 0.151578
v 0.323834 2.756264 0.374366
v 0.375126 2.756264 0.374366
v 0.323834 2.651066 0.371061
v 0.375126 2.651066 0.371061
v 0.323834 2.662357 0.216569
v 0.375126 2.662357 0.216569
v 0.323834 2.559362 0.205278
v 0.375126 2.559362 0.205278
v 0.323834 2.548071 0.360872
v 0.375126 2.548071 0.360872
v 0.323834 2.457469 0.356466
v 0.375126 2.457469 0.356466
v 0.323834 2.483079 0.122662
v 0.375126 2.483079 0.122662
v 0.323834 2.366866 0.122662
v 0.375126 2.366866 0.122662
v 0.323834 2.370171 0.438256
v 0.375126 2.370171 0.438256
v 0.323834 2.839155 -0.279403
v 0.375126 2.839155 -0.279403
v 0.323834 2.806660 -0.387906
v 0.375126 2.806660 -0.387906
v 0.323834 2.662357 -0.470798
v 0.375126 2.662357 -0.470798
v 0.323834 2.456367 -0.441607
v 0.375126 2.456367 -0.441607
v 0.323834 2.388071 -0.280505
v 0.375126 2.388071 -0.280505
v 0.323834 2.453062 -0.132897
v 0.375126 2.453062 -0.132897
v 0.323834 2.639775 -0.085806
v 0.375126 2.639775 -0.085806
v 0.323834 2.792064 -0.156305
v 0.375126 2.792064 -0.156305
v 0.323834 2.706969 -0.314102
v 0.375126 2.706969 -0.314102
v 0.323834 2.692374 -0.229834
v 0.375126 2.692374 -0.229834
v 0.323834 2.536780 -0.234515
v 0.375126 2.536780 -0.234515
v 0.323834 2.536780 -0.337510
v 0.375126 2.536780 -0.337510
v 0.323834 2.790963 -0.518990
v 0.375126 2.790963 -0.518990
v 0.323834 2.780773 -0.608491
v 0.375126 2.780773 -0.608491
v 0.323834 2.493269 -0.677889
v 0.375126 2.493269 -0.677889
v 0.323834 2.835575 -0.742880
v 0.375126 2.835575 -0.742880
v 0.323834 2.826763 -0.844774
v 0.375126 2.826763 -0.844774
v 0.323834 2.376780 -0.738474
v 0.375126 2.376780 -0.738474
v 0.323834 2.402667 -0.612071
v 0.375126 2.402667 -0.612071
v 0.323834 2.836677 -0.898474
v 0.375126 2.836677 -0.898474
v 0.323834 2.854852 -1.185979
v 0.375126 2.854852 -1.185979
v 0.323834 2.774164 -1.196168
v 0.375126 2.774164 -1.196168
v 0.323834 2.756264 -0.973379
v 0.375126 2.756264 -0.973379
v 0.323834 2.651066 -0.976684
v 0.375126 2.651066 -0.976684
v 0.323834 2.662357 -1.131176
v 0.375126 2.662357 -1.131176
v 0.323834 2.559362 -1.142467
v 0.375126 2.559362 -1.142467
v 0.323834 2.548071 -0.986874
v 0.375126 2.548071 -0.986874
v 0.323834 2.457469 -0.991280
v 0.375126 2.457469 -0.991280
v 0.323834 2.483079 -1.225083
v 0.375126 2.483079 -1.225083
v 0.323834 2.366866 -1.225083
v 0.375126 2.366866 -1.225083
v 0.323834 2.370171 -0.909490
v 0.375126 2.370171 -0.909490
v 0.323834 2.835575 -1.277958
v 0.375126 2.835575 -1.277958
v 0.323834 2.847968 -1.452278
v 0.375126 2.847968 -1.452278
v 0.323834 2.782976 -1.583362
v 0.375126 2.782976 -1.583362
v 0.323834 2.629586 -1.582261
v 0.375126 2.629586 -1.582261
v 0.323834 2.572580 -1.478165
v 0.375126 2.572580 -1.478165
v 0.323834 2.483079 -1.634860
v 0.375126 2.483079 -1.634860
v 0.323834 2.373475 -1.548664
v 0.375126 2.373475 -1.548664
v 0.323834 2.557985 -1.388664
v 0.375126 2.557985 -1.388664
v 0.323834 2.369069 -1.406564
v 0.375126 2.369069 -1.406564
v 0.323834 2.367968 -1.301366
v 0.375126 2.367968 -1.301366
v 0.323834 2.769758 -1.502949
v 0.375126 2.769758 -1.502949
v 0.323834 2.779672 -1.348457
v 0.375126 2.779672 -1.348457
v 0.323834 2.635369 -1.372967
v 0.375126 2.635369 -1.372967
v 0.323834 2.664560 -1.519748
v 0.375126 2.664560 -1.519748
vn 1.0000 0.0000 0.0000
vn -1.0000 0.0000 0.0000
vn 0.0000 0.9729 -0.2311
vn 0.0000 0.2314 -0.9728
vn 0.0000 -0.9638 -0.2665
vn 0.0000 -0.9756 -0.2197
vn 0.0000 -0.0713 -0.9974
vn 0.0000 0.9595 -0.2815
vn 0.0000 0.4975 0.8675
vn 0.0000 0.7224 0.6915
vn 0.0000 0.6126 -0.7903
vn 0.0000 -0.8574 -0.5145
vn 0.0000 -0.7723 -0.6352
vn 0.0000 -0.5719 -0.8203
vn 0.0000 -0.8667 0.4988
vn 0.0000 -0.9424 0.3345
vn 0.0000 -0.9965 0.0831
vn 0.0000 -0.4575 0.8892
vn 0.0000 0.2476 0.9688
vn 0.0000 0.8735 0.4869
vn 0.0000 0.7983 0.6022
vn 0.0000 0.8078 -0.5894
vn 0.0000 -0.4037 -0.9149
vn 0.0000 -0.9239 0.3825
vn 0.0000 -0.8075 0.5898
vn 0.0000 -0.8025 -0.5966
vn 0.0000 -0.8457 -0.5336
vn 0.0000 -0.5196 0.8544
vn 0.0000 0.5893 0.8079
vn 0.0000 0.6190 -0.7853
vn 0.0000 0.8243 0.5661
vn 0.0000 0.8000 -0.6000
vn 0.0000 0.9918 0.1280
vn 0.0000 0.7671 0.6414
vn 0.0000 0.7706 -0.6373
vn 0.0000 -0.6600 -0.7513
vn 0.0000 -0.6312 0.7756
vn 0.0000 -0.1517 0.9884
vn 0.0000 -1.0000 -0.0046
vn 0.0000 -0.9826 -0.1856
vn 0.0000 -0.9474 -0.3201
vn 0.0000 -0.8093 -0.5874
vn 0.0000 -0.5741 0.8187
vn 0.0000 0.6758 0.7371
vn 0.0000 -0.6307 -0.7760
vn 0.0000 -0.6666 -0.7454
vn 0.0000 0.7430 -0.6692
vn 0.0000 0.7685 -0.6399
vn 0.0000 -0.6401 -0.7683
vn 0.0000 -0.6630 -0.7486
vn 0.0000 0.7606 -0.6492
vn 0.0000 0.7446 -0.6675
vn 0.0000 -0.7108 -0.7034
vn 0.0000 -0.7117 0.7024
vn 0.0000 0.9993 0.0372
vn 0.0000 0.7837 -0.6211
vn 0.0000 0.1892 -0.9819
vn 0.0000 -0.6094 -0.7928
vn 0.0000 -1.0000 0.0069
vn 0.0000 -0.6454 0.7638
vn 0.0000 0.0931 0.9956
vn 0.0000 0.7308 0.6826
vn 0.0000 -0.8072 0.5902
vn 0.0000 -0.6323 -0.7747
vn 0.0000 0.7176 -0.6964
vn 0.0000 0.6572 0.7537
vn 0.0000 0.6627 0.7489
vn 0.0000 0.7494 -0.6621
vn 0.0000 0.9997 0.0246
vn 0.0000 0.7970 0.6039
vn 0.0000 0.5861 -0.8102
vn 0.0000 -0.8427 -0.5383
vn 0.0000 -0.7188 0.6952
vn 0.0000 0.6630 0.7486
vn 0.0000 0.9811 -0.1934
vn 0.0000 0.5241 -0.8516
vn 0.0000 -0.5128 -0.8585
vn 0.0000 -0.0089 -0.9999
vn 0.0000 0.1915 -0.9815
vn 0.0000 -0.9997 -0.0240
vn 0.0000 -0.9193 -0.3935
vn 0.0000 -0.6690 -0.7432
vn 0.0000 -0.7281 0.6854
vn 0.0000 -0.7396 0.6730
vn 0.0000 -0.6693 -0.7429
vn 0.0000 0.8235 -0.5672
vn 0.0000 0.5713 0.8207
usemtl Material.004
s off
f 1//1 3//1 2//1
f 10//1 12//1 1//1
f 12//1 3//1 1//1
f 12//1 11//1 3//1
f 11//1 4//1 3//1
f 10//1 13//1 12//1
f 14//1 4//1 11//1
f 13//1 4//1 14//1
f 10//1 8//1 13//1
f 8//1 4//1 13//1
f 8//1 5//1 4//1
f 8//1 6//1 5//1
f 10//1 9//1 8//1
f 7//1 6//1 8//1
f 15//1 17//1 16//1
f 26//1 18//1 15//1
f 18//1 17//1 15//1
f 26//1 19//1 18//1
f 19//1 21//1 20//1
f 26//1 22//1 19//1
f 22//1 21//1 19//1
f 26//1 23//1 22//1
f 23//1 25//1 24//1
f 26//1 25//1 23//1
f 29//1 31//1 30//1
f 29//1 32//1 31//1
f 33//1 28//1 27//1
f 33//1 29//1 28//1
f 33//1 32//1 29//1
f 41//1 35//1 34//1
f 41//1 36//1 35//1
f 40//1 43//1 41//1
f 43//1 42//1 41//1
f 42//1 36//1 41//1
f 45//1 36//1 42//1
f 40//1 44//1 43//1
f 45//1 37//1 36//1
f 39//1 44//1 40//1
f 39//1 45//1 44//1
f 39//1 37//1 45//1
f 39//1 38//1 37//1
f 46//1 48//1 47//1
f 57//1 49//1 46//1
f 49//1 48//1 46//1
f 57//1 50//1 49//1
f 50//1 52//1 51//1
f 57//1 53//1 50//1
f 53//1 52//1 50//1
f 57//1 54//1 53//1
f 54//1 56//1 55//1
f 57//1 56//1 54//1
f 70//1 59//1 58//1
f 61//1 63//1 62//1
f 60//1 66//1 61//1
f 66//1 63//1 61//1
f 70//1 68//1 59//1
f 68//1 60//1 59//1
f 68//1 66//1 60//1
f 68//1 67//1 66//1
f 65//1 63//1 66//1
f 70//1 69//1 68//1
f 64//1 63//1 65//1
f 71//1 80//1 72//1
f 80//1 73//1 72//1
f 78//1 79//1 71//1
f 79//1 80//1 71//1
f 78//1 81//1 79//1
f 81//1 82//1 79//1
f 81//1 75//1 80//1
f 75//1 73//1 80//1
f 78//1 76//1 81//1
f 76//1 75//1 81//1
f 78//1 77//1 76//1
f 74//1 73//1 75//1
f 100//1 84//1 83//1
f 99//1 86//1 100//1
f 86//1 84//1 100//1
f 86//1 85//1 84//1
f 99//1 87//1 86//1
f 98//1 87//1 99//1
f 98//1 88//1 87//1
f 89//1 91//1 90//1
f 89//1 93//1 91//1
f 93//1 92//1 91//1
f 88//1 93//1 89//1
f 88//1 96//1 93//1
f 96//1 94//1 93//1
f 97//1 88//1 98//1
f 97//1 96//1 88//1
f 95//1 94//1 96//1
f 103//2 101//2 102//2
f 112//2 110//2 101//2
f 103//2 112//2 101//2
f 111//2 112//2 103//2
f 104//2 111//2 103//2
f 113//2 110//2 112//2
f 104//2 114//2 111//2
f 104//2 113//2 114//2
f 108//2 110//2 113//2
f 104//2 108//2 113//2
f 105//2 108//2 104//2
f 106//2 108//2 105//2
f 109//2 110//2 108//2
f 106//2 107//2 108//2
f 117//2 115//2 116//2
f 118//2 126//2 115//2
f 117//2 118//2 115//2
f 119//2 126//2 118//2
f 121//2 119//2 120//2
f 122//2 126//2 119//2
f 121//2 122//2 119//2
f 123//2 126//2 122//2
f 125//2 123//2 124//2
f 125//2 126//2 123//2
f 131//2 129//2 130//2
f 132//2 129//2 131//2
f 128//2 133//2 127//2
f 129//2 133//2 128//2
f 132//2 133//2 129//2
f 135//2 141//2 134//2
f 136//2 141//2 135//2
f 143//2 140//2 141//2
f 142//2 143//2 141//2
f 136//2 142//2 141//2
f 136//2 145//2 142//2
f 144//2 140//2 143//2
f 137//2 145//2 136//2
f 144//2 139//2 140//2
f 145//2 139//2 144//2
f 137//2 139//2 145//2
f 138//2 139//2 137//2
f 148//2 146//2 147//2
f 149//2 157//2 146//2
f 148//2 149//2 146//2
f 150//2 157//2 149//2
f 152//2 150//2 151//2
f 153//2 157//2 150//2
f 152//2 153//2 150//2
f 154//2 157//2 153//2
f 156//2 154//2 155//2
f 156//2 157//2 154//2
f 159//2 170//2 158//2
f 163//2 161//2 162//2
f 166//2 160//2 161//2
f 163//2 166//2 161//2
f 168//2 170//2 159//2
f 160//2 168//2 159//2
f 166//2 168//2 160//2
f 167//2 168//2 166//2
f 163//2 165//2 166//2
f 169//2 170//2 168//2
f 163//2 164//2 165//2
f 180//2 171//2 172//2
f 173//2 180//2 172//2
f 179//2 178//2 171//2
f 180//2 179//2 171//2
f 181//2 178//2 179//2
f 182//2 181//2 179//2
f 175//2 181//2 180//2
f 173//2 175//2 180//2
f 176//2 178//2 181//2
f 175//2 176//2 181//2
f 177//2 178//2 176//2
f 173//2 174//2 175//2
f 184//2 200//2 183//2
f 186//2 199//2 200//2
f 184//2 186//2 200//2
f 185//2 186//2 184//2
f 187//2 199//2 186//2
f 187//2 198//2 199//2
f 188//2 198//2 187//2
f 191//2 189//2 190//2
f 193//2 189//2 191//2
f 192//2 193//2 191//2
f 193//2 188//2 189//2
f 196//2 188//2 193//2
f 194//2 196//2 193//2
f 188//2 197//2 198//2
f 196//2 197//2 188//2
f 194//2 195//2 196//2
s 1
f 202//3 204//4 203//4 201//3
f 204//4 206//5 205//5 203//4
f 206//5 208//6 207//6 205//5
f 208//6 210//7 209//7 207//6
f 210//7 212//8 211//8 209//7
f 212//8 214//9 213//9 211//8
f 214//9 216//10 215//10 213//9
f 216//10 218//11 217//11 215//10
f 218//11 220//12 219//12 217//11
f 220//12 222//13 221//13 219//12
f 222//13 224//14 223//14 221//13
f 224//14 226//15 225//15 223//14
f 226//15 228//16 227//16 225//15
f 228//16 230//17 229//17 227//16
f 230//17 232//18 231//18 229//17
f 232//18 234//19 233//19 231//18
f 234//19 236//20 235//20 233//19
f 236//20 202//3 201//3 235//20
f 238//21 240//22 239//22 237//21
f 240//22 242//23 241//23 239//22
f 242//23 244//24 243//24 241//23
f 244//24 246//25 245//25 243//24
f 246//25 248//26 247//26 245//25
f 248//26 250//27 249//27 247//26
f 250//27 252//28 251//28 249//27
f 252//28 238//21 237//21 251//28
f 254//29 256//30 255//30 253//29
f 256//30 258//30 257//30 255//30
f 258//30 260//29 259//29 257//30
f 260//29 254//29 253//29 259//29
f 262//31 264//32 263//32 261//31
f 264//32 266//33 265//33 263//32
f 266//33 268//34 267//34 265//33
f 268//34 270//35 269//35 267//34
f 270//35 272//36 271//36 269//35
f 272//36 274//37 273//37 271//36
f 274//37 276//38 275//38 273//37
f 276//38 278//39 277//39 275//38
f 278//39 280//40 279//40 277//39
f 280//40 282//41 281//41 279//40
f 282//41 284//42 283//42 281//41
f 284//42 286//43 285//43 283//42
f 286//43 262//31 261//31 285//43
f 288//44 290//35 289//35 287//44
f 290//35 292//45 291//45 289//35
f 292//45 294//46 293//46 291//45
f 294//46 296//47 295//47 293//46
f 296//47 298//48 297//48 295//47
f 298//48 300//49 299//49 297//48
f 300//49 302//50 301//50 299//49
f 302//50 304//51 303//51 301//50
f 304//51 306//52 305//52 303//51
f 306//52 308//53 307//53 305//52
f 308//53 310//54 309//54 307//53
f 310//54 288//44 287//44 309//54
f 312//55 314//56 313//56 311//55
f 314//56 316//57 315//57 313//56
f 316//57 318//58 317//58 315//57
f 318//58 320//59 319//59 317//58
f 320//59 322//60 321//60 319//59
f 322//60 324//61 323//61 321//60
f 324//61 326//62 325//62 323//61
f 326//62 312//55 311//55 325//62
f 328//63 330//64 329//64 327//63
f 330//64 332//65 331//65 329//64
f 332//65 334//66 333//66 331//65
f 334//66 328//63 327//63 333//66
f 336//67 338//68 337//68 335//67
f 338//68 340//69 339//69 337//68
f 340//69 342//70 341//70 339//69
f 342//70 344//71 343//71 341//70
f 344//71 346//72 345//72 343//71
f 346//72 348//73 347//73 345//72
f 348//73 336//67 335//67 347//73
f 350//44 352//35 351//35 349//44
f 352//35 354//45 353//45 351//35
f 354//45 356//46 355//46 353//45
f 356//46 358//47 357//47 355//46
f 358//47 360//48 359//48 357//47
f 360//48 362//49 361//49 359//48
f 362//49 364//50 363//50 361//49
f 364//50 366//51 365//51 363//50
f 366//51 368//52 367//52 365//51
f 368//52 370//53 369//53 367//52
f 370//53 372//54 371//54 369//53
f 372//54 350//44 349//44 371//54
f 374//74 376//75 375//75 373//74
f 376//75 378//76 377//76 375//75
f 378//76 380//77 379//77 377//76
f 380//77 382//78 381//78 379//77
f 382//78 384//79 383//79 381//78
f 384//79 386//80 385//80 383//79
f 386//80 388//81 387//81 385//80
f 388//81 390//82 389//82 387//81
f 390//82 392//83 391//83 389//82
f 392//83 374//74 373//74 391//83
f 394//84 396//85 395//85 393//84
f 396//85 398//86 397//86 395//85
f 398//86 400//87 399//87 397//86
f 400//87 394//84 393//84 399//87
