# Blender v2.79 (sub 0) OBJ File: 'croco.blend'
# www.blender.org
mtllib side.mtl
o side_Cube
v -1.534210 1.278093 4.024291
v 0.162253 1.278093 3.957452
v 1.858715 1.278093 4.692670
v 0.162253 1.278093 4.759508
v 0.162253 -0.000796 4.692670
v 0.162253 2.974555 4.692670
v 0.162253 2.974555 4.024291
v 0.162253 2.974555 4.157966
v 0.162253 2.974555 4.291642
v 0.162253 2.974555 4.425318
v 0.162253 2.974555 4.558994
v 0.162253 -0.000796 4.024291
v 0.162253 -0.000796 4.157966
v 0.162253 -0.000796 4.291642
v 0.162253 -0.000796 4.425318
v 0.162253 -0.000796 4.558994
v 1.858715 1.278093 4.024291
v 1.858715 1.278093 4.157966
v 1.858715 1.278093 4.291642
v 1.858715 1.278093 4.425318
v 1.858715 1.278093 4.558994
v -1.534210 1.278093 4.692670
v -1.534210 1.278093 4.558994
v -1.534210 1.278093 4.425318
v -1.534210 1.278093 4.291642
v -1.534210 1.278093 4.157966
v -1.110094 0.005746 4.692670
v -0.945590 1.278093 4.693109
v -1.110094 2.550440 4.024291
v -0.945590 1.278093 4.023851
v 0.162253 0.170250 4.023851
v 0.162253 2.385936 4.023851
v 1.270095 1.278093 4.023851
v 1.434600 0.005746 4.024291
v 1.434600 2.550440 4.692670
v 1.270095 1.278093 4.693109
v 0.162253 0.170250 4.693109
v 0.162253 2.385936 4.693109
v -1.110094 0.005746 4.024291
v -1.110094 0.005746 4.157966
v -1.110094 0.005746 4.291642
v -1.110094 0.005746 4.425318
v -1.110094 0.005746 4.558994
v -1.110094 2.550440 4.692670
v -1.110094 2.550440 4.558994
v -1.110094 2.550440 4.425318
v -1.110094 2.550440 4.291642
v -1.110094 2.550440 4.157966
v 1.434600 0.005746 4.692670
v 1.434600 0.005746 4.558994
v 1.434600 0.005746 4.425318
v 1.434600 0.005746 4.291642
v 1.434600 0.005746 4.157966
v 1.434600 2.550440 4.024291
v 1.434600 2.550440 4.157966
v 1.434600 2.550440 4.291642
v 1.434600 2.550440 4.425318
v 1.434600 2.550440 4.558994
v 0.162253 2.974555 4.091128
v 0.162253 2.974555 4.224804
v 0.162253 2.974555 4.358480
v 0.162253 2.974555 4.492156
v 0.162253 2.974555 4.625832
v 0.162253 -0.000796 4.091128
v 0.162253 -0.000796 4.224804
v 0.162253 -0.000796 4.358480
v 0.162253 -0.000796 4.492156
v 0.162253 -0.000796 4.625832
v 1.858715 1.278093 4.091128
v 1.858715 1.278093 4.224804
v 1.858715 1.278093 4.358480
v 1.858715 1.278093 4.492156
v 1.858715 1.278093 4.625832
v -1.534210 1.278093 4.625832
v -1.534210 1.278093 4.492156
v -1.534210 1.278093 4.358480
v -1.534210 1.278093 4.224804
v -1.534210 1.278093 4.091128
v -0.658372 0.457468 4.681793
v -0.658372 2.098717 4.681793
v -0.658372 0.457468 4.035167
v -0.658372 2.098717 4.035167
v 0.982877 0.457468 4.681793
v 0.982877 2.098717 4.681793
v 0.982877 0.457468 4.035167
v 0.982877 2.098717 4.035167
v -1.110094 0.005746 4.091128
v -1.110094 0.005746 4.224804
v -1.110094 0.005746 4.358480
v -1.110094 0.005746 4.492156
v -1.110094 0.005746 4.625832
v -1.110094 2.550440 4.625832
v -1.110094 2.550440 4.492156
v -1.110094 2.550440 4.358480
v -1.110094 2.550440 4.224804
v -1.110094 2.550440 4.091128
v 1.434600 0.005746 4.625832
v 1.434600 0.005746 4.492156
v 1.434600 0.005746 4.358480
v 1.434600 0.005746 4.224804
v 1.434600 0.005746 4.091128
v 1.434600 2.550440 4.091128
v 1.434600 2.550440 4.224804
v 1.434600 2.550440 4.358480
v 1.434600 2.550440 4.492156
v 1.434600 2.550440 4.625832
vn -0.7635 0.0000 -0.6458
vn -0.4698 -0.6485 -0.5990
vn -0.5868 -0.8097 0.0000
vn -1.0000 0.0000 0.0000
vn -0.7071 0.7071 0.0000
vn -0.5543 0.5543 -0.6209
vn -0.0139 0.0139 -0.9998
vn -0.0120 0.0000 -0.9999
vn -0.0143 -0.0114 -0.9998
vn 0.0000 0.0000 -1.0000
vn 0.0000 -0.0072 -1.0000
vn 0.0000 0.0120 -0.9999
vn 0.0139 0.0139 -0.9998
vn 0.0120 0.0000 -0.9999
vn 0.0143 -0.0114 -0.9998
vn 0.7635 0.0000 0.6458
vn 0.4698 -0.6485 0.5990
vn 0.5868 -0.8097 0.0000
vn 1.0000 0.0000 0.0000
vn 0.7071 0.7071 0.0000
vn 0.5543 0.5543 0.6209
vn 0.0139 0.0139 0.9998
vn 0.0120 0.0000 0.9999
vn 0.0143 -0.0114 0.9998
vn 0.0000 -0.7016 0.7125
vn -0.4698 -0.6485 0.5990
vn 0.0000 -1.0000 0.0000
vn 0.0000 -0.0072 1.0000
vn -0.0143 -0.0114 0.9998
vn 0.0000 0.7635 0.6458
vn 0.0000 1.0000 0.0000
vn -0.5543 0.5543 0.6209
vn -0.0139 0.0139 0.9998
vn 0.0000 0.0120 0.9999
vn 0.0000 0.7635 -0.6458
vn 0.5543 0.5543 -0.6209
vn 0.0000 -0.7016 -0.7125
vn 0.4698 -0.6485 -0.5990
vn 0.7635 0.0000 -0.6458
vn -0.7635 0.0000 0.6458
vn -0.0120 0.0000 0.9999
vn 0.0000 0.0000 1.0000
usemtl Material.007
s 1
f 1//1 39//2 87//3 78//4
f 1//1 78//4 96//5 29//6
f 1//1 29//6 82//7 30//8
f 1//1 30//8 81//9 39//2
f 2//10 31//11 81//9 30//8
f 2//10 30//8 82//7 32//12
f 2//10 32//12 86//13 33//14
f 2//10 33//14 85//15 31//11
f 3//16 49//17 97//18 73//19
f 3//16 73//19 106//20 35//21
f 3//16 35//21 84//22 36//23
f 3//16 36//23 83//24 49//17
f 5//25 27//26 91//3 68//27
f 5//25 68//27 97//18 49//17
f 5//25 49//17 83//24 37//28
f 5//25 37//28 79//29 27//26
f 6//30 35//21 106//20 63//31
f 6//30 63//31 92//5 44//32
f 6//30 44//32 80//33 38//34
f 6//30 38//34 84//22 35//21
f 7//35 54//36 86//13 32//12
f 7//35 32//12 82//7 29//6
f 7//35 29//6 96//5 59//31
f 7//35 59//31 102//20 54//36
f 8//31 55//20 102//20 59//31
f 8//31 59//31 96//5 48//5
f 8//31 48//5 95//5 60//31
f 8//31 60//31 103//20 55//20
f 9//31 56//20 103//20 60//31
f 9//31 60//31 95//5 47//5
f 9//31 47//5 94//5 61//31
f 9//31 61//31 104//20 56//20
f 10//31 57//20 104//20 61//31
f 10//31 61//31 94//5 46//5
f 10//31 46//5 93//5 62//31
f 10//31 62//31 105//20 57//20
f 11//31 58//20 105//20 62//31
f 11//31 62//31 93//5 45//5
f 11//31 45//5 92//5 63//31
f 11//31 63//31 106//20 58//20
f 12//37 39//2 81//9 31//11
f 12//37 31//11 85//15 34//38
f 12//37 34//38 101//18 64//27
f 12//37 64//27 87//3 39//2
f 13//27 40//3 87//3 64//27
f 13//27 64//27 101//18 53//18
f 13//27 53//18 100//18 65//27
f 13//27 65//27 88//3 40//3
f 14//27 41//3 88//3 65//27
f 14//27 65//27 100//18 52//18
f 14//27 52//18 99//18 66//27
f 14//27 66//27 89//3 41//3
f 15//27 42//3 89//3 66//27
f 15//27 66//27 99//18 51//18
f 15//27 51//18 98//18 67//27
f 15//27 67//27 90//3 42//3
f 16//27 43//3 90//3 67//27
f 16//27 67//27 98//18 50//18
f 16//27 50//18 97//18 68//27
f 16//27 68//27 91//3 43//3
f 17//39 34//38 85//15 33//14
f 17//39 33//14 86//13 54//36
f 17//39 54//36 102//20 69//19
f 17//39 69//19 101//18 34//38
f 18//19 53//18 101//18 69//19
f 18//19 69//19 102//20 55//20
f 18//19 55//20 103//20 70//19
f 18//19 70//19 100//18 53//18
f 19//19 52//18 100//18 70//19
f 19//19 70//19 103//20 56//20
f 19//19 56//20 104//20 71//19
f 19//19 71//19 99//18 52//18
f 20//19 51//18 99//18 71//19
f 20//19 71//19 104//20 57//20
f 20//19 57//20 105//20 72//19
f 20//19 72//19 98//18 51//18
f 21//19 50//18 98//18 72//19
f 21//19 72//19 105//20 58//20
f 21//19 58//20 106//20 73//19
f 21//19 73//19 97//18 50//18
f 22//40 27//26 79//29 28//41
f 22//40 28//41 80//33 44//32
f 22//40 44//32 92//5 74//4
f 22//40 74//4 91//3 27//26
f 23//4 43//3 91//3 74//4
f 23//4 74//4 92//5 45//5
f 23//4 45//5 93//5 75//4
f 23//4 75//4 90//3 43//3
f 24//4 42//3 90//3 75//4
f 24//4 75//4 93//5 46//5
f 24//4 46//5 94//5 76//4
f 24//4 76//4 89//3 42//3
f 25//4 41//3 89//3 76//4
f 25//4 76//4 94//5 47//5
f 25//4 47//5 95//5 77//4
f 25//4 77//4 88//3 41//3
f 26//4 40//3 88//3 77//4
f 26//4 77//4 95//5 48//5
f 26//4 48//5 96//5 78//4
f 26//4 78//4 87//3 40//3
usemtl Material.001
f 4//42 37//28 83//24 36//23
f 4//42 36//23 84//22 38//34
f 4//42 38//34 80//33 28//41
f 4//42 28//41 79//29 37//28
