# Blender v2.79 (sub 0) OBJ File: 'croco.blend'
# www.blender.org
mtllib title.mtl
o title_CUCROCS
v 0.460954 4.575564 -3.121212
v 0.460954 4.473577 -3.654897
v 0.460954 4.178794 -3.523571
v 0.460954 4.354826 -3.080697
v 0.460954 4.145264 -2.752383
v 0.460954 3.689816 -3.586440
v 0.460954 3.424371 -3.619970
v 0.460954 3.191058 -2.472967
v 0.460954 3.502607 -2.433849
v 0.460954 3.582240 -3.286068
v 0.460954 4.036292 -2.535836
v 0.460954 4.406518 -2.667161
v 0.460954 5.540946 2.602625
v 0.460954 5.200059 1.785333
v 0.460954 4.666375 2.057764
v 0.460954 4.990497 2.641743
v 0.460954 4.536446 3.106971
v 0.460954 3.969232 2.977042
v 0.460954 3.872833 2.506226
v 0.460954 4.217912 2.063352
v 0.460954 3.702389 1.772759
v 0.460954 3.219000 2.471299
v 0.460954 3.502607 3.227119
v 0.460954 4.406518 3.562419
v 0.460954 5.262928 3.283003
v 0.460954 4.275192 1.489152
v 0.460954 4.184382 1.364812
v 0.460954 4.343649 1.070028
v 0.460954 4.099160 0.780832
v 0.460954 3.889598 0.899584
v 0.460954 4.041880 1.070028
v 0.460954 3.956658 1.268413
v 0.460954 3.174293 1.205545
v 0.460954 3.179881 1.529667
v 0.460954 4.008350 1.500329
v 0.460954 4.127102 1.592536
v 0.460954 4.751596 -0.110505
v 0.460954 4.638433 -0.553379
v 0.460954 4.110337 -0.785294
v 0.460954 3.554299 -0.831398
v 0.460954 3.207823 -0.195727
v 0.460954 3.383855 0.439945
v 0.460954 4.008350 0.604800
v 0.460954 4.564388 0.428768
v 0.460954 4.338061 -0.285140
v 0.460954 4.291957 0.152146
v 0.460954 3.691213 0.101851
v 0.460954 3.689816 -0.388524
v 0.460954 4.644022 -1.928106
v 0.460954 4.519681 -2.241052
v 0.460954 4.127102 -2.053843
v 0.460954 4.321296 -1.685014
v 0.460954 4.132690 -1.377656
v 0.460954 3.815553 -1.339935
v 0.460954 3.587829 -1.655675
v 0.460954 3.769449 -1.990975
v 0.460954 3.429959 -2.213110
v 0.460954 3.163116 -1.701779
v 0.460954 3.411797 -1.077284
v 0.460954 4.048865 -1.036769
v 0.460954 4.558800 -1.355303
v 0.261971 4.575564 -3.121212
v 0.261971 4.473577 -3.654897
v 0.261971 4.178794 -3.523571
v 0.261971 4.354826 -3.080697
v 0.261971 4.145264 -2.752383
v 0.261971 3.689816 -3.586440
v 0.261971 3.424371 -3.619970
v 0.261971 3.191058 -2.472967
v 0.261971 3.502607 -2.433849
v 0.261971 3.582240 -3.286068
v 0.261971 4.036292 -2.535836
v 0.261971 4.406518 -2.667161
v 0.261971 5.540946 2.602625
v 0.261971 5.200059 1.785333
v 0.261971 4.666375 2.057764
v 0.261971 4.990497 2.641743
v 0.261971 4.536446 3.106971
v 0.261971 3.969232 2.977042
v 0.261971 3.872833 2.506226
v 0.261971 4.217912 2.063352
v 0.261971 3.702389 1.772759
v 0.261971 3.219000 2.471299
v 0.261971 3.502607 3.227119
v 0.261971 4.406518 3.562419
v 0.261971 5.262928 3.283003
v 0.261971 4.275192 1.489152
v 0.261971 4.184382 1.364812
v 0.261971 4.343649 1.070028
v 0.261971 4.099160 0.780832
v 0.261971 3.889598 0.899584
v 0.261971 4.041880 1.070028
v 0.261971 3.956658 1.268413
v 0.261971 3.174293 1.205545
v 0.261971 3.179881 1.529667
v 0.261971 4.008350 1.500329
v 0.261971 4.127102 1.592536
v 0.261971 4.751596 -0.110505
v 0.261971 4.638433 -0.553379
v 0.261971 4.110337 -0.785294
v 0.261971 3.554299 -0.831398
v 0.261971 3.207823 -0.195727
v 0.261971 3.383855 0.439945
v 0.261971 4.008350 0.604800
v 0.261971 4.564388 0.428768
v 0.261971 4.338061 -0.285140
v 0.261971 4.291957 0.152146
v 0.261971 3.691213 0.101851
v 0.261971 3.689816 -0.388524
v 0.261971 4.644022 -1.928106
v 0.261971 4.519681 -2.241052
v 0.261971 4.127102 -2.053843
v 0.261971 4.321296 -1.685014
v 0.261971 4.132690 -1.377656
v 0.261971 3.815553 -1.339935
v 0.261971 3.587829 -1.655675
v 0.261971 3.769449 -1.990975
v 0.261971 3.429959 -2.213110
v 0.261971 3.163116 -1.701779
v 0.261971 3.411797 -1.077284
v 0.261971 4.048865 -1.036769
v 0.261971 4.558800 -1.355303
v 0.261971 5.540946 2.602625
v 0.460954 5.540946 2.602625
v 0.261971 5.200059 1.785333
v 0.460954 5.200059 1.785333
v 0.261971 4.666375 2.057764
v 0.460954 4.666375 2.057764
v 0.261971 4.990497 2.641743
v 0.460954 4.990497 2.641743
v 0.261971 4.536446 3.106971
v 0.460954 4.536446 3.106971
v 0.261971 3.969232 2.977042
v 0.460954 3.969232 2.977042
v 0.261971 3.872833 2.506226
v 0.460954 3.872833 2.506226
v 0.261971 4.217912 2.063352
v 0.460954 4.217912 2.063352
v 0.261971 3.702389 1.772759
v 0.460954 3.702389 1.772759
v 0.261971 3.219000 2.471299
v 0.460954 3.219000 2.471299
v 0.261971 3.502607 3.227119
v 0.460954 3.502607 3.227119
v 0.261971 4.406518 3.562419
v 0.460954 4.406518 3.562419
v 0.261971 5.262928 3.283003
v 0.460954 5.262928 3.283003
v 0.261971 4.275192 1.489152
v 0.460954 4.275192 1.489152
v 0.261971 4.184382 1.364812
v 0.460954 4.184382 1.364812
v 0.261971 4.343649 1.070028
v 0.460954 4.343649 1.070028
v 0.261971 4.099160 0.780832
v 0.460954 4.099160 0.780832
v 0.261971 3.889598 0.899584
v 0.460954 3.889598 0.899584
v 0.261971 4.041880 1.070028
v 0.460954 4.041880 1.070028
v 0.261971 3.956658 1.268413
v 0.460954 3.956658 1.268413
v 0.261971 3.174293 1.205545
v 0.460954 3.174293 1.205545
v 0.261971 3.179881 1.529667
v 0.460954 3.179881 1.529667
v 0.261971 4.008350 1.500329
v 0.460954 4.008350 1.500329
v 0.261971 4.127102 1.592536
v 0.460954 4.127102 1.592536
v 0.261971 4.751596 -0.110505
v 0.460954 4.751596 -0.110505
v 0.261971 4.638433 -0.553379
v 0.460954 4.638433 -0.553379
v 0.261971 4.110337 -0.785294
v 0.460954 4.110337 -0.785294
v 0.261971 3.554299 -0.831398
v 0.460954 3.554299 -0.831398
v 0.261971 3.207823 -0.195727
v 0.460954 3.207823 -0.195727
v 0.261971 3.383855 0.439945
v 0.460954 3.383855 0.439945
v 0.261971 4.008350 0.604800
v 0.460954 4.008350 0.604800
v 0.261971 4.564388 0.428768
v 0.460954 4.564388 0.428768
v 0.261971 4.338061 -0.285140
v 0.460954 4.338061 -0.285140
v 0.261971 4.291957 0.152146
v 0.460954 4.291957 0.152146
v 0.261971 3.691213 0.101851
v 0.460954 3.691213 0.101851
v 0.261971 3.689816 -0.388524
v 0.460954 3.689816 -0.388524
v 0.261971 4.644022 -1.928106
v 0.460954 4.644022 -1.928106
v 0.261971 4.519681 -2.241052
v 0.460954 4.519681 -2.241052
v 0.261971 4.127102 -2.053843
v 0.460954 4.127102 -2.053843
v 0.261971 4.321296 -1.685014
v 0.460954 4.321296 -1.685014
v 0.261971 4.132690 -1.377656
v 0.460954 4.132690 -1.377656
v 0.261971 3.815553 -1.339935
v 0.460954 3.815553 -1.339935
v 0.261971 3.587829 -1.655675
v 0.460954 3.587829 -1.655675
v 0.261971 3.769449 -1.990975
v 0.460954 3.769449 -1.990975
v 0.261971 3.429959 -2.213110
v 0.460954 3.429959 -2.213110
v 0.261971 3.163116 -1.701779
v 0.460954 3.163116 -1.701779
v 0.261971 3.411797 -1.077284
v 0.460954 3.411797 -1.077284
v 0.261971 4.048865 -1.036769
v 0.460954 4.048865 -1.036769
v 0.261971 4.558800 -1.355303
v 0.460954 4.558800 -1.355303
v 0.261971 4.575564 -3.121212
v 0.460954 4.575564 -3.121212
v 0.261971 4.473577 -3.654897
v 0.460954 4.473577 -3.654897
v 0.261971 4.178794 -3.523571
v 0.460954 4.178794 -3.523571
v 0.261971 4.354826 -3.080697
v 0.460954 4.354826 -3.080697
v 0.261971 4.145264 -2.752383
v 0.460954 4.145264 -2.752383
v 0.261971 3.689816 -3.586440
v 0.460954 3.689816 -3.586440
v 0.261971 3.424371 -3.619970
v 0.460954 3.424371 -3.619970
v 0.261971 3.191058 -2.472967
v 0.460954 3.191058 -2.472967
v 0.261971 3.502607 -2.433849
v 0.460954 3.502607 -2.433849
v 0.261971 3.582240 -3.286068
v 0.460954 3.582240 -3.286068
v 0.261971 4.036292 -2.535836
v 0.460954 4.036292 -2.535836
v 0.261971 4.406518 -2.667161
v 0.460954 4.406518 -2.667161
vn 1.0000 0.0000 -0.0000
vn -1.0000 0.0000 0.0000
vn 0.0000 1.0000 -0.0036
vn 0.0000 0.3446 -0.9387
vn 0.0000 -0.9565 -0.2917
vn 0.0000 -0.9911 -0.1329
vn 0.0000 -0.2823 -0.9593
vn 0.0000 0.7153 -0.6988
vn 0.0000 0.9737 0.2279
vn 0.0000 0.9805 -0.1965
vn 0.0000 -0.2242 -0.9745
vn 0.0000 -0.9924 -0.1229
vn 0.0000 -0.7058 0.7084
vn 0.0000 -0.0199 0.9998
vn 0.0000 0.6810 0.7323
vn 0.0000 0.9864 0.1645
vn 0.0000 0.9977 -0.0677
vn 0.0000 0.9947 -0.1030
vn 0.0000 0.1758 -0.9844
vn 0.0000 -0.9867 -0.1623
vn 0.0000 -0.9869 0.1610
vn 0.0000 -0.5162 -0.8564
vn 0.0000 -0.6845 -0.7290
vn 0.0000 -0.6883 0.7255
vn 0.0000 -0.3074 0.9516
vn 0.0000 -0.0254 0.9997
vn 0.0000 0.9991 0.0420
vn 0.0000 0.7625 -0.6469
vn 0.0000 0.2457 -0.9693
vn 0.0000 -0.4746 -0.8802
vn 0.0000 -0.9934 -0.1142
vn 0.0000 -0.7028 0.7114
vn 0.0000 0.0242 0.9997
vn 0.0000 0.6973 0.7168
vn 0.0000 -0.7938 0.6082
vn 0.0000 -0.6374 -0.7705
vn 0.0000 0.7350 -0.6780
vn 0.0000 0.6501 0.7598
vn 0.0000 0.9933 -0.1150
vn 0.0000 0.3652 -0.9309
vn 0.0000 -0.9490 -0.3151
vn 0.0000 -0.9995 -0.0329
vn 0.0000 -0.5391 -0.8422
vn 0.0000 0.4021 -0.9156
vn 0.0000 0.9979 -0.0641
vn 0.0000 0.9695 -0.2449
vn 0.0000 -0.2524 -0.9676
vn 0.0000 -0.9987 -0.0510
vn 0.0000 -0.5872 0.8094
vn 0.0000 0.2449 0.9695
vn 0.0000 0.8364 0.5481
vn 0.0000 0.9965 0.0837
vn 0.0000 0.4630 -0.8863
vn 0.0000 -0.9261 -0.3771
vn 0.0000 -0.9955 -0.0947
vn 0.0000 0.0341 -0.9994
vn 0.0000 0.5632 -0.8263
vn 0.0000 -0.5828 -0.8126
vn 0.0000 -0.8123 0.5831
vn 0.0000 0.6259 0.7798
vn 0.0000 0.2236 0.9747
vn 0.0000 -0.3362 0.9418
vn 0.0000 0.7016 0.7126
usemtl Material.001
s off
f 25//1 14//1 13//1
f 24//1 16//1 25//1
f 16//1 14//1 25//1
f 16//1 15//1 14//1
f 24//1 17//1 16//1
f 24//1 18//1 17//1
f 23//1 18//1 24//1
f 19//1 21//1 20//1
f 23//1 19//1 18//1
f 23//1 21//1 19//1
f 23//1 22//1 21//1
f 27//1 29//1 28//1
f 36//1 27//1 26//1
f 36//1 29//1 27//1
f 35//1 29//1 36//1
f 35//1 31//1 29//1
f 31//1 30//1 29//1
f 35//1 32//1 31//1
f 34//1 32//1 35//1
f 34//1 33//1 32//1
f 44//1 38//1 37//1
f 44//1 45//1 38//1
f 45//1 39//1 38//1
f 43//1 46//1 44//1
f 46//1 45//1 44//1
f 48//1 39//1 45//1
f 43//1 47//1 46//1
f 48//1 40//1 39//1
f 42//1 47//1 43//1
f 42//1 48//1 47//1
f 42//1 40//1 48//1
f 42//1 41//1 40//1
f 61//1 50//1 49//1
f 60//1 52//1 61//1
f 52//1 50//1 61//1
f 52//1 51//1 50//1
f 60//1 53//1 52//1
f 60//1 54//1 53//1
f 59//1 54//1 60//1
f 59//1 55//1 54//1
f 55//1 57//1 56//1
f 59//1 57//1 55//1
f 59//1 58//1 57//1
f 12//1 2//1 1//1
f 12//1 4//1 2//1
f 4//1 3//1 2//1
f 11//1 4//1 12//1
f 11//1 5//1 4//1
f 11//1 6//1 5//1
f 10//1 6//1 11//1
f 10//1 7//1 6//1
f 9//1 7//1 10//1
f 8//1 7//1 9//1
f 75//2 86//2 74//2
f 77//2 85//2 86//2
f 75//2 77//2 86//2
f 76//2 77//2 75//2
f 78//2 85//2 77//2
f 79//2 85//2 78//2
f 79//2 84//2 85//2
f 82//2 80//2 81//2
f 80//2 84//2 79//2
f 82//2 84//2 80//2
f 83//2 84//2 82//2
f 90//2 88//2 89//2
f 88//2 97//2 87//2
f 90//2 97//2 88//2
f 90//2 96//2 97//2
f 92//2 96//2 90//2
f 91//2 92//2 90//2
f 93//2 96//2 92//2
f 93//2 95//2 96//2
f 94//2 95//2 93//2
f 99//2 105//2 98//2
f 106//2 105//2 99//2
f 100//2 106//2 99//2
f 107//2 104//2 105//2
f 106//2 107//2 105//2
f 100//2 109//2 106//2
f 108//2 104//2 107//2
f 101//2 109//2 100//2
f 108//2 103//2 104//2
f 109//2 103//2 108//2
f 101//2 103//2 109//2
f 102//2 103//2 101//2
f 111//2 122//2 110//2
f 113//2 121//2 122//2
f 111//2 113//2 122//2
f 112//2 113//2 111//2
f 114//2 121//2 113//2
f 115//2 121//2 114//2
f 115//2 120//2 121//2
f 116//2 120//2 115//2
f 118//2 116//2 117//2
f 118//2 120//2 116//2
f 119//2 120//2 118//2
f 63//2 73//2 62//2
f 65//2 73//2 63//2
f 64//2 65//2 63//2
f 65//2 72//2 73//2
f 66//2 72//2 65//2
f 67//2 72//2 66//2
f 67//2 71//2 72//2
f 68//2 71//2 67//2
f 68//2 70//2 71//2
f 68//2 69//2 70//2
s 1
f 124//3 126//4 125//4 123//3
f 126//4 128//5 127//5 125//4
f 128//5 130//6 129//6 127//5
f 130//6 132//7 131//7 129//6
f 132//7 134//8 133//8 131//7
f 134//8 136//9 135//9 133//8
f 136//9 138//10 137//10 135//9
f 138//10 140//11 139//11 137//10
f 140//11 142//12 141//12 139//11
f 142//12 144//13 143//13 141//12
f 144//13 146//14 145//14 143//13
f 146//14 148//15 147//15 145//14
f 148//15 124//3 123//3 147//15
f 150//16 152//17 151//17 149//16
f 152//17 154//18 153//18 151//17
f 154//18 156//19 155//19 153//18
f 156//19 158//20 157//20 155//19
f 158//20 160//21 159//21 157//20
f 160//21 162//22 161//22 159//21
f 162//22 164//23 163//23 161//22
f 164//23 166//24 165//24 163//23
f 166//24 168//25 167//25 165//24
f 168//25 170//26 169//26 167//25
f 170//26 150//16 149//16 169//26
f 172//27 174//28 173//28 171//27
f 174//28 176//29 175//29 173//28
f 176//29 178//30 177//30 175//29
f 178//30 180//31 179//31 177//30
f 180//31 182//32 181//32 179//31
f 182//32 184//33 183//33 181//32
f 184//33 186//34 185//34 183//33
f 186//34 172//27 171//27 185//34
f 188//35 190//36 189//36 187//35
f 190//36 192//37 191//37 189//36
f 192//37 194//38 193//38 191//37
f 194//38 188//35 187//35 193//38
f 196//39 198//40 197//40 195//39
f 198//40 200//41 199//41 197//40
f 200//41 202//42 201//42 199//41
f 202//42 204//43 203//43 201//42
f 204//43 206//44 205//44 203//43
f 206//44 208//45 207//45 205//44
f 208//45 210//46 209//46 207//45
f 210//46 212//47 211//47 209//46
f 212//47 214//48 213//48 211//47
f 214//48 216//49 215//49 213//48
f 216//49 218//50 217//50 215//49
f 218//50 220//51 219//51 217//50
f 220//51 196//39 195//39 219//51
f 222//52 224//53 223//53 221//52
f 224//53 226//54 225//54 223//53
f 226//54 228//55 227//55 225//54
f 228//55 230//56 229//56 227//55
f 230//56 232//57 231//57 229//56
f 232//57 234//58 233//58 231//57
f 234//58 236//59 235//59 233//58
f 236//59 238//60 237//60 235//59
f 238//60 240//61 239//61 237//60
f 240//61 242//62 241//62 239//61
f 242//62 244//63 243//63 241//62
f 244//63 222//52 221//52 243//63
