{
    "accessors" : [
        {
            "bufferView" : 0,
            "componentType" : 5123,
            "count" : 58290,
            "max" : [
                38492
            ],
            "min" : [
                0
            ],
            "type" : "SCALAR"
        },
        {
            "bufferView" : 1,
            "componentType" : 5126,
            "count" : 38493,
            "max" : [
                19.957181930541992,
                24.592458724975586,
                2.0097339153289795
            ],
            "min" : [
                -19.482057571411133,
                -19.364974975585938,
                -12.941831588745117
            ],
            "type" : "VEC3"
        },
        {
            "bufferView" : 2,
            "componentType" : 5126,
            "count" : 38493,
            "max" : [
                1.0,
                1.0,
                1.0
            ],
            "min" : [
                -1.0,
                -1.0,
                -1.0
            ],
            "type" : "VEC3"
        },
        {
            "bufferView" : 3,
            "componentType" : 5126,
            "count" : 38493,
            "max" : [
                0.9858180284500122,
                0.9218780025839806
            ],
            "min" : [
                0.01476799976080656,
                0.010334014892578125
            ],
            "type" : "VEC2"
        },
        {
            "bufferView" : 4,
            "componentType" : 5123,
            "count" : 1536,
            "max" : [
                292
            ],
            "min" : [
                0
            ],
            "type" : "SCALAR"
        },
        {
            "bufferView" : 5,
            "componentType" : 5126,
            "count" : 293,
            "max" : [
                20.081911087036133,
                20.03004264831543,
                -0.04514399915933609
            ],
            "min" : [
                -20.024730682373047,
                -20.091875076293945,
                -2.3687050342559814
            ],
            "type" : "VEC3"
        },
        {
            "bufferView" : 6,
            "componentType" : 5126,
            "count" : 293,
            "max" : [
                0.32972198724746704,
                0.2713400721549988,
                -0.9379253387451172
            ],
            "min" : [
                -0.34400463104248047,
                -0.30463576316833496,
                -0.999969482421875
            ],
            "type" : "VEC3"
        },
        {
            "bufferView" : 7,
            "componentType" : 5126,
            "count" : 293,
            "max" : [
                -0.938952624797821,
                0.04767140746116638,
                0.3438087999820709,
                1.0
            ],
            "min" : [
                -0.9999996423721313,
                -0.05091266706585884,
                -0.3297520875930786,
                1.0
            ],
            "type" : "VEC4"
        },
        {
            "bufferView" : 8,
            "componentType" : 5126,
            "count" : 293,
            "max" : [
                0.48971399664878845,
                0.3644319772720337
            ],
            "min" : [
                0.39177200198173523,
                0.26645100116729736
            ],
            "type" : "VEC2"
        },
        {
            "bufferView" : 9,
            "componentType" : 5121,
            "count" : 36,
            "max" : [
                23
            ],
            "min" : [
                0
            ],
            "type" : "SCALAR"
        },
        {
            "bufferView" : 10,
            "componentType" : 5126,
            "count" : 24,
            "max" : [
                1.0000004768371582,
                1.0,
                1.0000005960464478
            ],
            "min" : [
                -1.0000003576278687,
                -1.0,
                -1.0000003576278687
            ],
            "type" : "VEC3"
        },
        {
            "bufferView" : 11,
            "componentType" : 5126,
            "count" : 24,
            "max" : [
                1.0,
                1.0,
                1.0
            ],
            "min" : [
                -1.0,
                -1.0,
                -1.0
            ],
            "type" : "VEC3"
        }
    ],
    "asset" : {
        "generator" : "Khronos Blender glTF 2.0 exporter",
        "version" : "2.0"
    },
    "bufferViews" : [
        {
            "buffer" : 0,
            "byteLength" : 116580,
            "byteOffset" : 0,
            "target" : 34963
        },
        {
            "buffer" : 0,
            "byteLength" : 461916,
            "byteOffset" : 116580,
            "target" : 34962
        },
        {
            "buffer" : 0,
            "byteLength" : 461916,
            "byteOffset" : 578496,
            "target" : 34962
        },
        {
            "buffer" : 0,
            "byteLength" : 307944,
            "byteOffset" : 1040412,
            "target" : 34962
        },
        {
            "buffer" : 0,
            "byteLength" : 3072,
            "byteOffset" : 1348356,
            "target" : 34963
        },
        {
            "buffer" : 0,
            "byteLength" : 3516,
            "byteOffset" : 1351428,
            "target" : 34962
        },
        {
            "buffer" : 0,
            "byteLength" : 3516,
            "byteOffset" : 1354944,
            "target" : 34962
        },
        {
            "buffer" : 0,
            "byteLength" : 4688,
            "byteOffset" : 1358460,
            "target" : 34962
        },
        {
            "buffer" : 0,
            "byteLength" : 2344,
            "byteOffset" : 1363148,
            "target" : 34962
        },
        {
            "buffer" : 0,
            "byteLength" : 36,
            "byteOffset" : 1365492,
            "target" : 34963
        },
        {
            "buffer" : 0,
            "byteLength" : 288,
            "byteOffset" : 1365528,
            "target" : 34962
        },
        {
            "buffer" : 0,
            "byteLength" : 288,
            "byteOffset" : 1365816,
            "target" : 34962
        }
    ],
    "buffers" : [
        {
            "byteLength" : 1366104,
            "uri" : "forest_20x20.bin"
        }
    ],
    "images" : [
        {
            "uri" : "forest_gltf_texture.png"
        }
    ],
    "materials" : [
        {
            "name" : "Material",
            "pbrMetallicRoughness" : {
                "baseColorFactor" : [
                    0.6400000190734865,
                    0.6400000190734865,
                    0.6400000190734865,
                    1.0
                ],
                "metallicFactor" : 0.0
            }
        },
        {
            "alphaMode" : "BLEND",
            "name" : "Material.001",
            "pbrMetallicRoughness" : {
                "baseColorFactor" : [
                    0.6399999856948853,
                    0.6399999856948853,
                    0.6399999856948853,
                    1.0
                ],
                "baseColorTexture" : {
                    "index" : 0
                },
                "metallicFactor" : 0.0
            }
        }
    ],
    "meshes" : [
        {
            "name" : "Cylinder.005_Cylinder.062",
            "primitives" : [
                {
                    "attributes" : {
                        "NORMAL" : 2,
                        "POSITION" : 1,
                        "TEXCOORD_0" : 3
                    },
                    "indices" : 0,
                    "material" : 1
                }
            ]
        },
        {
            "name" : "Cylinder.005_Cylinder.000",
            "primitives" : [
                {
                    "attributes" : {
                        "NORMAL" : 6,
                        "POSITION" : 5,
                        "TANGENT" : 7,
                        "TEXCOORD_0" : 8
                    },
                    "indices" : 4,
                    "material" : 1
                }
            ]
        },
        {
            "name" : "Cube",
            "primitives" : [
                {
                    "attributes" : {
                        "NORMAL" : 11,
                        "POSITION" : 10
                    },
                    "indices" : 9,
                    "material" : 0
                }
            ]
        }
    ],
    "nodes" : [
        {
            "name" : "Camera",
            "rotation" : [
                0.483536034822464,
                0.33687159419059753,
                -0.20870360732078552,
                0.7804827094078064
            ],
            "translation" : [
                7.481131553649902,
                5.34366512298584,
                6.5076398849487305
            ]
        },
        {
            "mesh" : 2,
            "name" : "Cube"
        },
        {
            "mesh" : 1,
            "name" : "Cylinder.005_Cylinder.000",
            "rotation" : [
                0.7071068286895752,
                0.0,
                -0.0,
                0.7071067094802856
            ]
        },
        {
            "mesh" : 0,
            "name" : "Cylinder.005_Cylinder.062",
            "rotation" : [
                0.7071068286895752,
                0.0,
                -0.0,
                0.7071067094802856
            ]
        },
        {
            "name" : "Lamp",
            "rotation" : [
                0.16907575726509094,
                0.7558802962303162,
                -0.27217137813568115,
                0.570947527885437
            ],
            "scale" : [
                1.0,
                1.0,
                0.9999999403953552
            ],
            "translation" : [
                4.076245307922363,
                5.903861999511719,
                -1.0054539442062378
            ]
        }
    ],
    "samplers" : [
        {}
    ],
    "scene" : 0,
    "scenes" : [
        {
            "name" : "Scene",
            "nodes" : [
                2,
                3,
                1,
                4,
                0
            ]
        }
    ],
    "textures" : [
        {
            "sampler" : 0,
            "source" : 0
        }
    ]
}
