# Blender v2.79 (sub 0) OBJ File: 'croco.blend'
# www.blender.org
mtllib side2.mtl
o side2_Cube.008
v -1.534210 1.278093 -4.065687
v 0.162253 1.278093 -3.998849
v 1.858715 1.278093 -4.734066
v 0.162253 1.278093 -4.800904
v 0.162253 -0.000796 -4.734066
v 0.162253 2.974555 -4.734066
v 0.162253 2.974555 -4.065687
v 0.162253 2.974555 -4.199363
v 0.162253 2.974555 -4.333038
v 0.162253 2.974555 -4.466714
v 0.162253 2.974555 -4.600390
v 0.162253 -0.000796 -4.065687
v 0.162253 -0.000796 -4.199363
v 0.162253 -0.000796 -4.333038
v 0.162253 -0.000796 -4.466714
v 0.162253 -0.000796 -4.600390
v 1.858715 1.278093 -4.065687
v 1.858715 1.278093 -4.199363
v 1.858715 1.278093 -4.333038
v 1.858715 1.278093 -4.466714
v 1.858715 1.278093 -4.600390
v -1.534210 1.278093 -4.734066
v -1.534210 1.278093 -4.600390
v -1.534210 1.278093 -4.466714
v -1.534210 1.278093 -4.333038
v -1.534210 1.278093 -4.199363
v -1.110094 0.005746 -4.734066
v -0.945590 1.278093 -4.734506
v -1.110094 2.550440 -4.065687
v -0.945590 1.278093 -4.065248
v 0.162253 0.170250 -4.065248
v 0.162253 2.385936 -4.065248
v 1.270095 1.278093 -4.065248
v 1.434600 0.005746 -4.065687
v 1.434600 2.550440 -4.734066
v 1.270095 1.278093 -4.734506
v 0.162253 0.170250 -4.734506
v 0.162253 2.385936 -4.734506
v -1.110094 0.005746 -4.065687
v -1.110094 0.005746 -4.199363
v -1.110094 0.005746 -4.333038
v -1.110094 0.005746 -4.466714
v -1.110094 0.005746 -4.600390
v -1.110094 2.550440 -4.734066
v -1.110094 2.550440 -4.600390
v -1.110094 2.550440 -4.466714
v -1.110094 2.550440 -4.333038
v -1.110094 2.550440 -4.199363
v 1.434600 0.005746 -4.734066
v 1.434600 0.005746 -4.600390
v 1.434600 0.005746 -4.466714
v 1.434600 0.005746 -4.333038
v 1.434600 0.005746 -4.199363
v 1.434600 2.550440 -4.065687
v 1.434600 2.550440 -4.199363
v 1.434600 2.550440 -4.333038
v 1.434600 2.550440 -4.466714
v 1.434600 2.550440 -4.600390
v 0.162253 2.974555 -4.132524
v 0.162253 2.974555 -4.266201
v 0.162253 2.974555 -4.399877
v 0.162253 2.974555 -4.533552
v 0.162253 2.974555 -4.667228
v 0.162253 -0.000796 -4.132524
v 0.162253 -0.000796 -4.266201
v 0.162253 -0.000796 -4.399877
v 0.162253 -0.000796 -4.533552
v 0.162253 -0.000796 -4.667228
v 1.858715 1.278093 -4.132524
v 1.858715 1.278093 -4.266201
v 1.858715 1.278093 -4.399877
v 1.858715 1.278093 -4.533552
v 1.858715 1.278093 -4.667228
v -1.534210 1.278093 -4.667228
v -1.534210 1.278093 -4.533552
v -1.534210 1.278093 -4.399877
v -1.534210 1.278093 -4.266201
v -1.534210 1.278093 -4.132524
v -0.658372 0.457468 -4.723189
v -0.658372 2.098717 -4.723189
v -0.658372 0.457468 -4.076563
v -0.658372 2.098717 -4.076563
v 0.982877 0.457468 -4.723189
v 0.982877 2.098717 -4.723189
v 0.982877 0.457468 -4.076563
v 0.982877 2.098717 -4.076563
v -1.110094 0.005746 -4.132524
v -1.110094 0.005746 -4.266201
v -1.110094 0.005746 -4.399877
v -1.110094 0.005746 -4.533552
v -1.110094 0.005746 -4.667228
v -1.110094 2.550440 -4.667228
v -1.110094 2.550440 -4.533552
v -1.110094 2.550440 -4.399877
v -1.110094 2.550440 -4.266201
v -1.110094 2.550440 -4.132524
v 1.434600 0.005746 -4.667228
v 1.434600 0.005746 -4.533552
v 1.434600 0.005746 -4.399877
v 1.434600 0.005746 -4.266201
v 1.434600 0.005746 -4.132524
v 1.434600 2.550440 -4.132524
v 1.434600 2.550440 -4.266201
v 1.434600 2.550440 -4.399877
v 1.434600 2.550440 -4.533552
v 1.434600 2.550440 -4.667228
vn -0.7635 0.0000 0.6458
vn -1.0000 0.0000 0.0000
vn -0.5868 -0.8097 0.0000
vn -0.4698 -0.6485 0.5990
vn -0.5543 0.5543 0.6209
vn -0.7071 0.7071 0.0000
vn -0.0120 0.0000 0.9999
vn -0.0139 0.0139 0.9998
vn -0.0143 -0.0114 0.9998
vn 0.0000 0.0000 1.0000
vn 0.0000 -0.0072 1.0000
vn 0.0000 0.0120 0.9999
vn 0.0120 0.0000 0.9999
vn 0.0139 0.0139 0.9998
vn 0.0143 -0.0114 0.9998
vn 0.7635 0.0000 -0.6458
vn 1.0000 0.0000 0.0000
vn 0.5868 -0.8097 0.0000
vn 0.4698 -0.6485 -0.5990
vn 0.5543 0.5543 -0.6209
vn 0.7071 0.7071 0.0000
vn 0.0120 0.0000 -0.9999
vn 0.0139 0.0139 -0.9998
vn 0.0143 -0.0114 -0.9998
vn 0.0000 -0.7016 -0.7125
vn 0.0000 -1.0000 0.0000
vn -0.4698 -0.6485 -0.5990
vn 0.0000 -0.0072 -1.0000
vn -0.0143 -0.0114 -0.9998
vn 0.0000 0.7635 -0.6458
vn 0.0000 1.0000 0.0000
vn -0.5543 0.5543 -0.6209
vn 0.0000 0.0120 -0.9999
vn -0.0139 0.0139 -0.9998
vn 0.0000 0.7635 0.6458
vn 0.5543 0.5543 0.6209
vn 0.0000 -0.7016 0.7125
vn 0.4698 -0.6485 0.5990
vn 0.7635 0.0000 0.6458
vn -0.7635 0.0000 -0.6458
vn -0.0120 0.0000 -0.9999
vn 0.0000 0.0000 -1.0000
usemtl Material.007
s 1
f 1//1 78//2 87//3 39//4
f 1//1 29//5 96//6 78//2
f 1//1 30//7 82//8 29//5
f 1//1 39//4 81//9 30//7
f 2//10 30//7 81//9 31//11
f 2//10 32//12 82//8 30//7
f 2//10 33//13 86//14 32//12
f 2//10 31//11 85//15 33//13
f 3//16 73//17 97//18 49//19
f 3//16 35//20 106//21 73//17
f 3//16 36//22 84//23 35//20
f 3//16 49//19 83//24 36//22
f 5//25 68//26 91//3 27//27
f 5//25 49//19 97//18 68//26
f 5//25 37//28 83//24 49//19
f 5//25 27//27 79//29 37//28
f 6//30 63//31 106//21 35//20
f 6//30 44//32 92//6 63//31
f 6//30 38//33 80//34 44//32
f 6//30 35//20 84//23 38//33
f 7//35 32//12 86//14 54//36
f 7//35 29//5 82//8 32//12
f 7//35 59//31 96//6 29//5
f 7//35 54//36 102//21 59//31
f 8//31 59//31 102//21 55//21
f 8//31 48//6 96//6 59//31
f 8//31 60//31 95//6 48//6
f 8//31 55//21 103//21 60//31
f 9//31 60//31 103//21 56//21
f 9//31 47//6 95//6 60//31
f 9//31 61//31 94//6 47//6
f 9//31 56//21 104//21 61//31
f 10//31 61//31 104//21 57//21
f 10//31 46//6 94//6 61//31
f 10//31 62//31 93//6 46//6
f 10//31 57//21 105//21 62//31
f 11//31 62//31 105//21 58//21
f 11//31 45//6 93//6 62//31
f 11//31 63//31 92//6 45//6
f 11//31 58//21 106//21 63//31
f 12//37 31//11 81//9 39//4
f 12//37 34//38 85//15 31//11
f 12//37 64//26 101//18 34//38
f 12//37 39//4 87//3 64//26
f 13//26 64//26 87//3 40//3
f 13//26 53//18 101//18 64//26
f 13//26 65//26 100//18 53//18
f 13//26 40//3 88//3 65//26
f 14//26 65//26 88//3 41//3
f 14//26 52//18 100//18 65//26
f 14//26 66//26 99//18 52//18
f 14//26 41//3 89//3 66//26
f 15//26 66//26 89//3 42//3
f 15//26 51//18 99//18 66//26
f 15//26 67//26 98//18 51//18
f 15//26 42//3 90//3 67//26
f 16//26 67//26 90//3 43//3
f 16//26 50//18 98//18 67//26
f 16//26 68//26 97//18 50//18
f 16//26 43//3 91//3 68//26
f 17//39 33//13 85//15 34//38
f 17//39 54//36 86//14 33//13
f 17//39 69//17 102//21 54//36
f 17//39 34//38 101//18 69//17
f 18//17 69//17 101//18 53//18
f 18//17 55//21 102//21 69//17
f 18//17 70//17 103//21 55//21
f 18//17 53//18 100//18 70//17
f 19//17 70//17 100//18 52//18
f 19//17 56//21 103//21 70//17
f 19//17 71//17 104//21 56//21
f 19//17 52//18 99//18 71//17
f 20//17 71//17 99//18 51//18
f 20//17 57//21 104//21 71//17
f 20//17 72//17 105//21 57//21
f 20//17 51//18 98//18 72//17
f 21//17 72//17 98//18 50//18
f 21//17 58//21 105//21 72//17
f 21//17 73//17 106//21 58//21
f 21//17 50//18 97//18 73//17
f 22//40 28//41 79//29 27//27
f 22//40 44//32 80//34 28//41
f 22//40 74//2 92//6 44//32
f 22//40 27//27 91//3 74//2
f 23//2 74//2 91//3 43//3
f 23//2 45//6 92//6 74//2
f 23//2 75//2 93//6 45//6
f 23//2 43//3 90//3 75//2
f 24//2 75//2 90//3 42//3
f 24//2 46//6 93//6 75//2
f 24//2 76//2 94//6 46//6
f 24//2 42//3 89//3 76//2
f 25//2 76//2 89//3 41//3
f 25//2 47//6 94//6 76//2
f 25//2 77//2 95//6 47//6
f 25//2 41//3 88//3 77//2
f 26//2 77//2 88//3 40//3
f 26//2 48//6 95//6 77//2
f 26//2 78//2 96//6 48//6
f 26//2 40//3 87//3 78//2
usemtl Material.001
f 4//42 36//22 83//24 37//28
f 4//42 38//33 84//23 36//22
f 4//42 28//41 80//34 38//33
f 4//42 37//28 79//29 28//41
