{
    "accessors" : [
        {
            "bufferView" : 0, 
            "componentType" : 5123, 
            "count" : 25344, 
            "max" : [
                9546
            ], 
            "min" : [
                0
            ], 
            "type" : "SCALAR"
        }, 
        {
            "bufferView" : 1, 
            "componentType" : 5126, 
            "count" : 9547, 
            "max" : [
                1.0000016689300537, 
                12.659961700439453, 
                1.0
            ], 
            "min" : [
                -1.0, 
                -1.296583890914917, 
                -1.0
            ], 
            "type" : "VEC3"
        }, 
        {
            "bufferView" : 2, 
            "componentType" : 5126, 
            "count" : 9547, 
            "max" : [
                0.999969482421875, 
                1.0, 
                0.9998779296875
            ], 
            "min" : [
                -0.9999856948852539, 
                -0.9998779296875, 
                -0.999969482421875
            ], 
            "type" : "VEC3"
        }, 
        {
            "bufferView" : 3, 
            "componentType" : 5126, 
            "count" : 9547, 
            "max" : [
                0.9954695105552673, 
                1.0
            ], 
            "min" : [
                0.0, 
                0.0075688958168029785
            ], 
            "type" : "VEC2"
        }, 
        {
            "bufferView" : 4, 
            "componentType" : 5126, 
            "count" : 9547, 
            "max" : [
                1.0, 
                1.0, 
                1.0, 
                1.0
            ], 
            "min" : [
                1.0, 
                1.0, 
                1.0, 
                1.0
            ], 
            "type" : "VEC4"
        }
    ], 
    "asset" : {
        "generator" : "Khronos Blender glTF 2.0 exporter", 
        "version" : "2.0"
    }, 
    "bufferViews" : [
        {
            "buffer" : 0, 
            "byteLength" : 50688, 
            "byteOffset" : 0, 
            "target" : 34963
        }, 
        {
            "buffer" : 0, 
            "byteLength" : 114564, 
            "byteOffset" : 50688, 
            "target" : 34962
        }, 
        {
            "buffer" : 0, 
            "byteLength" : 114564, 
            "byteOffset" : 165252, 
            "target" : 34962
        }, 
        {
            "buffer" : 0, 
            "byteLength" : 76376, 
            "byteOffset" : 279816, 
            "target" : 34962
        }, 
        {
            "buffer" : 0, 
            "byteLength" : 152752, 
            "byteOffset" : 356192, 
            "target" : 34962
        }
    ], 
    "buffers" : [
        {
            "byteLength" : 508944, 
            "uri" : "data:application/octet-stream;base64,"
        }
    ], 
    "images" : [
        {
            "uri" : "data:image/png;base64,"
        }
    ], 
    "materials" : [
        {
            "name" : "Material.001", 
            "pbrMetallicRoughness" : {
                "baseColorFactor" : [
                    0.6400000190734865, 
                    0.6400000190734865, 
                    0.6400000190734865, 
                    1.0
                ], 
                "baseColorTexture" : {
                    "index" : 0
                }, 
                "metallicFactor" : 0.0
            }
        }
    ], 
    "meshes" : [
        {
            "name" : "Plane", 
            "primitives" : [
                {
                    "attributes" : {
                        "COLOR_0" : 4, 
                        "NORMAL" : 2, 
                        "POSITION" : 1, 
                        "TEXCOORD_0" : 3
                    }, 
                    "indices" : 0, 
                    "material" : 0
                }
            ]
        }
    ], 
    "nodes" : [
        {
            "mesh" : 0, 
            "name" : "Plane", 
            "scale" : [
                10.0, 
                1.0, 
                10.0
            ]
        }
    ], 
    "samplers" : [
        {}
    ], 
    "scene" : 0, 
    "scenes" : [
        {
            "name" : "Scene", 
            "nodes" : [
                0
            ]
        }
    ], 
    "textures" : [
        {
            "sampler" : 0, 
            "source" : 0
        }
    ]
}
